<svg width="20" height="20" viewBox="0 0 20 20" fill="none" xmlns="http://www.w3.org/2000/svg">
<path d="M8.9325 1.735C6.78917 3.425 5 6.07833 5 10C5 13.8075 6.615 16.4983 8.79 18.2458C4.76583 17.6583 1.66667 14.1842 1.66667 10C1.66667 5.76667 4.84 2.26 8.9325 1.735ZM10 0C4.48583 0 0 4.48583 0 10C0 15.5142 4.48583 20 10 20C11.5783 20 13.225 19.7225 14.475 19.0175C11.5975 18.5067 6.66667 16.2117 6.66667 10C6.66667 3.70417 12.0183 1.4025 14.475 0.9825C13.025 0.414167 11.5783 0 10 0ZM10 9.16583C11.1975 9.53083 12.135 10.4692 12.4992 11.6667C12.8658 10.4692 13.8033 9.53167 15 9.16667C13.8033 8.80083 12.8658 7.86417 12.4992 6.66667C12.135 7.86333 11.1975 8.80083 10 9.16583ZM16.6675 9.16667C17.4658 9.41083 18.09 10.035 18.3342 10.8342C18.5767 10.035 19.2025 9.41 20 9.16667C19.2025 8.92333 18.5775 8.29833 18.3333 7.5C18.0892 8.29833 17.465 8.92333 16.6675 9.16667ZM15.8342 1.66667C15.47 2.86417 14.5317 3.80167 13.3358 4.1675C14.5342 4.53417 15.47 5.47083 15.8367 6.66917C16.2008 5.47083 17.1392 4.53333 18.3333 4.1675C17.1392 3.80333 16.2008 2.86417 15.8342 1.66667Z" fill="#0C0C0C"/>
</svg>
