<svg width="144" height="114" viewBox="0 0 144 114" fill="none" xmlns="http://www.w3.org/2000/svg">
<path d="M6.018 3.798V0.415H4.199V3.798H0.816V5.617H4.199V9H6.018V5.617H9.401V3.798H6.018ZM20.9428 3.798V0.415H19.1238V3.798H15.7408V5.617H19.1238V9H20.9428V5.617H24.3258V3.798H20.9428ZM35.8676 3.798V0.415H34.0486V3.798H30.6656V5.617H34.0486V9H35.8676V5.617H39.2506V3.798H35.8676ZM50.7924 3.798V0.415H48.9734V3.798H45.5904V5.617H48.9734V9H50.7924V5.617H54.1754V3.798H50.7924ZM65.7172 3.798V0.415H63.8982V3.798H60.5152V5.617H63.8982V9H65.7172V5.617H69.1002V3.798H65.7172ZM80.642 3.798V0.415H78.823V3.798H75.44V5.617H78.823V9H80.642V5.617H84.025V3.798H80.642ZM95.5668 3.798V0.415H93.7478V3.798H90.3648V5.617H93.7478V9H95.5668V5.617H98.9498V3.798H95.5668ZM110.492 3.798V0.415H108.673V3.798H105.29V5.617H108.673V9H110.492V5.617H113.875V3.798H110.492ZM125.416 3.798V0.415H123.597V3.798H120.214V5.617H123.597V9H125.416V5.617H128.799V3.798H125.416ZM140.341 3.798V0.415H138.522V3.798H135.139V5.617H138.522V9H140.341V5.617H143.724V3.798H140.341ZM6.018 24.798V21.415H4.199V24.798H0.816V26.617H4.199V30H6.018V26.617H9.401V24.798H6.018ZM20.9428 24.798V21.415H19.1238V24.798H15.7408V26.617H19.1238V30H20.9428V26.617H24.3258V24.798H20.9428ZM35.8676 24.798V21.415H34.0486V24.798H30.6656V26.617H34.0486V30H35.8676V26.617H39.2506V24.798H35.8676ZM50.7924 24.798V21.415H48.9734V24.798H45.5904V26.617H48.9734V30H50.7924V26.617H54.1754V24.798H50.7924ZM65.7172 24.798V21.415H63.8982V24.798H60.5152V26.617H63.8982V30H65.7172V26.617H69.1002V24.798H65.7172ZM80.642 24.798V21.415H78.823V24.798H75.44V26.617H78.823V30H80.642V26.617H84.025V24.798H80.642ZM95.5668 24.798V21.415H93.7478V24.798H90.3648V26.617H93.7478V30H95.5668V26.617H98.9498V24.798H95.5668ZM110.492 24.798V21.415H108.673V24.798H105.29V26.617H108.673V30H110.492V26.617H113.875V24.798H110.492ZM125.416 24.798V21.415H123.597V24.798H120.214V26.617H123.597V30H125.416V26.617H128.799V24.798H125.416ZM140.341 24.798V21.415H138.522V24.798H135.139V26.617H138.522V30H140.341V26.617H143.724V24.798H140.341ZM6.018 45.798V42.415H4.199V45.798H0.816V47.617H4.199V51H6.018V47.617H9.401V45.798H6.018ZM20.9428 45.798V42.415H19.1238V45.798H15.7408V47.617H19.1238V51H20.9428V47.617H24.3258V45.798H20.9428ZM35.8676 45.798V42.415H34.0486V45.798H30.6656V47.617H34.0486V51H35.8676V47.617H39.2506V45.798H35.8676ZM50.7924 45.798V42.415H48.9734V45.798H45.5904V47.617H48.9734V51H50.7924V47.617H54.1754V45.798H50.7924ZM65.7172 45.798V42.415H63.8982V45.798H60.5152V47.617H63.8982V51H65.7172V47.617H69.1002V45.798H65.7172ZM80.642 45.798V42.415H78.823V45.798H75.44V47.617H78.823V51H80.642V47.617H84.025V45.798H80.642ZM95.5668 45.798V42.415H93.7478V45.798H90.3648V47.617H93.7478V51H95.5668V47.617H98.9498V45.798H95.5668ZM110.492 45.798V42.415H108.673V45.798H105.29V47.617H108.673V51H110.492V47.617H113.875V45.798H110.492ZM125.416 45.798V42.415H123.597V45.798H120.214V47.617H123.597V51H125.416V47.617H128.799V45.798H125.416ZM140.341 45.798V42.415H138.522V45.798H135.139V47.617H138.522V51H140.341V47.617H143.724V45.798H140.341ZM6.018 66.798V63.415H4.199V66.798H0.816V68.617H4.199V72H6.018V68.617H9.401V66.798H6.018ZM20.9428 66.798V63.415H19.1238V66.798H15.7408V68.617H19.1238V72H20.9428V68.617H24.3258V66.798H20.9428ZM35.8676 66.798V63.415H34.0486V66.798H30.6656V68.617H34.0486V72H35.8676V68.617H39.2506V66.798H35.8676ZM50.7924 66.798V63.415H48.9734V66.798H45.5904V68.617H48.9734V72H50.7924V68.617H54.1754V66.798H50.7924ZM65.7172 66.798V63.415H63.8982V66.798H60.5152V68.617H63.8982V72H65.7172V68.617H69.1002V66.798H65.7172ZM80.642 66.798V63.415H78.823V66.798H75.44V68.617H78.823V72H80.642V68.617H84.025V66.798H80.642ZM95.5668 66.798V63.415H93.7478V66.798H90.3648V68.617H93.7478V72H95.5668V68.617H98.9498V66.798H95.5668ZM110.492 66.798V63.415H108.673V66.798H105.29V68.617H108.673V72H110.492V68.617H113.875V66.798H110.492ZM125.416 66.798V63.415H123.597V66.798H120.214V68.617H123.597V72H125.416V68.617H128.799V66.798H125.416ZM140.341 66.798V63.415H138.522V66.798H135.139V68.617H138.522V72H140.341V68.617H143.724V66.798H140.341ZM6.018 87.798V84.415H4.199V87.798H0.816V89.617H4.199V93H6.018V89.617H9.401V87.798H6.018ZM20.9428 87.798V84.415H19.1238V87.798H15.7408V89.617H19.1238V93H20.9428V89.617H24.3258V87.798H20.9428ZM35.8676 87.798V84.415H34.0486V87.798H30.6656V89.617H34.0486V93H35.8676V89.617H39.2506V87.798H35.8676ZM50.7924 87.798V84.415H48.9734V87.798H45.5904V89.617H48.9734V93H50.7924V89.617H54.1754V87.798H50.7924ZM65.7172 87.798V84.415H63.8982V87.798H60.5152V89.617H63.8982V93H65.7172V89.617H69.1002V87.798H65.7172ZM80.642 87.798V84.415H78.823V87.798H75.44V89.617H78.823V93H80.642V89.617H84.025V87.798H80.642ZM95.5668 87.798V84.415H93.7478V87.798H90.3648V89.617H93.7478V93H95.5668V89.617H98.9498V87.798H95.5668ZM110.492 87.798V84.415H108.673V87.798H105.29V89.617H108.673V93H110.492V89.617H113.875V87.798H110.492ZM125.416 87.798V84.415H123.597V87.798H120.214V89.617H123.597V93H125.416V89.617H128.799V87.798H125.416ZM140.341 87.798V84.415H138.522V87.798H135.139V89.617H138.522V93H140.341V89.617H143.724V87.798H140.341ZM6.018 108.798V105.415H4.199V108.798H0.816V110.617H4.199V114H6.018V110.617H9.401V108.798H6.018ZM20.9428 108.798V105.415H19.1238V108.798H15.7408V110.617H19.1238V114H20.9428V110.617H24.3258V108.798H20.9428ZM35.8676 108.798V105.415H34.0486V108.798H30.6656V110.617H34.0486V114H35.8676V110.617H39.2506V108.798H35.8676ZM50.7924 108.798V105.415H48.9734V108.798H45.5904V110.617H48.9734V114H50.7924V110.617H54.1754V108.798H50.7924ZM65.7172 108.798V105.415H63.8982V108.798H60.5152V110.617H63.8982V114H65.7172V110.617H69.1002V108.798H65.7172ZM80.642 108.798V105.415H78.823V108.798H75.44V110.617H78.823V114H80.642V110.617H84.025V108.798H80.642ZM95.5668 108.798V105.415H93.7478V108.798H90.3648V110.617H93.7478V114H95.5668V110.617H98.9498V108.798H95.5668ZM110.492 108.798V105.415H108.673V108.798H105.29V110.617H108.673V114H110.492V110.617H113.875V108.798H110.492ZM125.416 108.798V105.415H123.597V108.798H120.214V110.617H123.597V114H125.416V110.617H128.799V108.798H125.416ZM140.341 108.798V105.415H138.522V108.798H135.139V110.617H138.522V114H140.341V110.617H143.724V108.798H140.341Z" fill="#1E1E1E"/>
</svg>
